<svg width="360" height="160" viewBox="0 0 360 160" fill="none" xmlns="http://www.w3.org/2000/svg">
<rect width="360" height="160" fill="#FCEDDB"/>
<circle opacity="0.8" cx="80" cy="104" r="52" fill="#DCDDED"/>
<circle opacity="0.8" cx="171" cy="70" r="66" fill="#C4C6E1"/>
<circle opacity="0.8" cx="256.5" cy="95.5" r="56.5" fill="#DCDDED"/>
<g clip-path="url(#clip0_672_13805)">
<path d="M136.284 61.7711C142.32 61.7711 145.594 61.0303 146.738 59.4492C147.747 58.0541 147.07 56.2133 146.287 54.082C145.724 52.55 145.086 50.8137 145.086 49.0953C145.086 40.7371 140.866 36.499 132.543 36.499C128.402 36.499 123.955 38.7081 120.649 42.4085C117.643 45.7724 116.145 49.7985 116.54 53.4543C116.864 56.4525 118.254 58.4242 120.914 59.6597L121.069 59.7319L121.113 59.5657C121.343 58.7052 121.732 57.8957 122.259 57.1794C122.311 58.3037 122.593 59.4053 123.088 60.4149L123.117 60.4724L123.178 60.4901C126.188 61.3511 129.761 61.5844 132.537 61.6913C133.889 61.7442 135.138 61.7708 136.284 61.7711Z" fill="#2F2E41"/>
<path d="M134.639 73.4166C134.87 72.7337 135.26 72.116 135.777 71.6148C136.294 71.1136 136.922 70.7434 137.61 70.5349C138.297 70.3264 139.025 70.2856 139.731 70.4158C140.438 70.5461 141.103 70.8437 141.672 71.2839L161.527 83.2046L167.74 67.9812C167.215 67.2079 166.948 66.2877 166.976 65.3523C167.004 64.417 167.327 63.5147 167.897 62.7747C168.468 62.0348 169.257 61.4953 170.151 61.2335C171.046 60.9718 172 61.0013 172.877 61.3179C173.754 61.6344 174.509 62.2217 175.032 62.9955C175.556 63.7693 175.823 64.6899 175.794 65.6252C175.765 66.5605 175.441 67.4625 174.87 68.2018C174.299 68.9411 173.509 69.4797 172.614 69.7404C172.231 74.1303 170.103 93.7518 162.699 93.0385C156.476 92.439 141.022 82.1035 136.222 78.5199C135.454 77.9471 134.887 77.1444 134.603 76.2273C134.318 75.3102 134.331 74.326 134.639 73.4166Z" fill="#FFB6B6"/>
<path d="M119.677 160H136.958L139.856 145.611L140.796 160H156.848C156.842 148.7 156.256 137.409 155.092 126.17L154.893 125.489L154.579 124.4L154.38 123.717L151.058 112.262L150.796 111.353H130.793C129.641 112.438 128.58 113.616 127.618 114.874C127.292 115.291 126.952 115.742 126.603 116.229C126.361 116.573 126.11 116.935 125.859 117.315C123.63 120.647 121.964 124.326 120.928 128.203V128.205C120.752 128.869 120.596 129.547 120.461 130.241V130.244C120.34 130.861 120.233 131.486 120.149 132.126C120.086 132.592 120.031 133.064 119.991 133.542C119.75 136.189 119.835 138.856 120.242 141.482L119.677 160Z" fill="#2F2E41"/>
<path d="M134.471 62.1168C128.899 62.1168 124.383 57.5812 124.383 51.9864C124.383 46.3916 128.899 41.8561 134.471 41.8561C140.042 41.8561 144.558 46.3916 144.558 51.9864C144.558 57.5812 140.042 62.1168 134.471 62.1168Z" fill="#FFB6B6"/>
<path d="M135.821 51.3723C136.69 51.3723 137.559 51.3477 138.428 51.2985L138.583 51.2898L138.562 51.1351C138.434 50.1681 138.506 49.1851 138.774 48.2473C139.228 49.3151 139.904 50.2733 140.756 51.0582L140.804 51.1024L140.869 51.0953C143.227 50.8363 145.564 50.4083 147.861 49.8146L147.949 49.792L147.967 49.7027C148.139 48.8564 148.227 47.9954 148.232 47.1319C148.232 44.4343 147.258 42.1638 145.49 40.7388C143.565 39.1876 140.806 38.7105 137.717 39.3947H127.843C126.757 39.3959 125.716 39.8295 124.949 40.6004C124.181 41.3713 123.749 42.4164 123.748 43.5066V49.7862L123.856 49.8145C127.762 50.8453 131.783 51.3688 135.821 51.3723Z" fill="#2F2E41"/>
<path d="M105.896 55.5238L116.57 81.1738C117.025 82.2591 117.887 83.1212 118.97 83.5739C120.053 84.0265 121.27 84.0336 122.357 83.5934C122.92 83.3657 123.431 83.0253 123.858 82.593C124.286 82.1606 124.621 81.6454 124.844 81.0786C125.067 80.5118 125.172 79.9055 125.154 79.2965C125.136 78.6874 124.994 78.0885 124.738 77.5362L112.837 51.2335L106.277 34.9449C106.843 34.3771 107.223 33.6478 107.362 32.8562C107.502 32.0645 107.396 31.2488 107.058 30.5198C106.72 29.7909 106.167 29.1841 105.474 28.7819C104.78 28.3797 103.98 28.2016 103.183 28.2718C102.385 28.3419 101.628 28.6569 101.015 29.174C100.402 29.6911 99.9625 30.3852 99.7559 31.1621C99.5493 31.9389 99.5858 32.7607 99.8605 33.5159C100.135 34.2712 100.635 34.9232 101.291 35.3834L105.896 55.5238Z" fill="#FFB6B6"/>
<path d="M139.203 64.098L129.683 63.6055L125.261 70.6221C125.261 70.6221 123.917 70.8478 122.347 71.7571C121.312 72.3564 114.191 50.81 113.28 52.1345C112.688 52.9955 109.653 53.7207 106.027 55.307C107.175 61.8964 111.92 75.7017 117.813 82.9532C124.812 91.5643 127.641 100.349 127.641 100.349L127.233 105.476L127.942 107.509L127.851 108.651L126.884 109.861L126.784 111.111L127.641 113.09L126.476 114.985L150.967 112.602L151.863 109.326L150.556 107.566L151.286 105.272L150.189 103.064L149.617 96.0537C149.617 96.0537 155.875 86.6116 148.691 79.5L152.087 88.845C152.087 88.845 158.613 92.9239 163.6 93.3771C168.587 93.8304 169.947 85.6725 169.947 85.6725L161.333 82.9532L142.581 70.6243L139.203 64.098Z" fill="#4F55A5"/>
<rect x="157.84" y="45.7625" width="20.9229" height="33.4767" rx="3.34767" transform="rotate(-7.5869 157.84 45.7625)" fill="#404040"/>
<rect x="160.882" y="49.5787" width="15.9014" height="25.1075" rx="1.67383" transform="rotate(-7.5869 160.882 49.5787)" fill="white"/>
<path d="M176.173 62.9126C175.181 63.046 174.172 62.889 173.268 62.4605C173.24 62.4477 173.214 62.4343 173.187 62.421C173.214 62.4343 173.24 62.4477 173.268 62.4605C173.315 61.816 173.482 61.186 173.762 60.6032C173.834 60.4523 173.915 60.304 174.003 60.1584C174.054 60.0736 174.108 59.99 174.165 59.9076C174.174 59.8937 174.184 59.8799 174.194 59.866C174.194 59.865 174.195 59.8642 174.196 59.8635C174.236 59.8051 174.278 59.7474 174.322 59.6904C174.322 59.69 174.323 59.6896 174.323 59.6893C174.354 59.6486 174.371 59.5995 174.373 59.5485C174.374 59.4976 174.36 59.4474 174.332 59.4049V59.4049C174.318 59.3834 174.301 59.3642 174.281 59.3481C174.281 59.3481 174.281 59.3481 174.28 59.3472L174.276 59.3447C174.255 59.328 174.23 59.3151 174.204 59.3065V59.3065C174.158 59.2912 174.107 59.2901 174.06 59.3034C174.013 59.3167 173.971 59.3437 173.939 59.3811C173.282 60.1553 172.423 60.7321 171.458 61.0473C171.571 61.1859 171.692 61.3186 171.819 61.4449C172.293 61.2705 172.743 61.0364 173.158 60.7481C173.139 60.7976 173.12 60.8471 173.101 60.8968C172.946 61.319 172.843 61.7582 172.793 62.205V62.205C172.285 61.8973 171.834 61.5058 171.457 61.0471C170.844 60.3009 170.452 59.3979 170.325 58.4403C170.316 58.3754 170.282 58.3167 170.231 58.277C170.179 58.2372 170.113 58.2197 170.048 58.2284C169.983 58.237 169.925 58.2711 169.885 58.323C169.845 58.375 169.828 58.4406 169.836 58.5054C169.841 58.5421 169.846 58.5785 169.852 58.615C169.853 58.6228 169.853 58.6311 169.854 58.6392C169.978 59.5698 169.848 60.489 169.486 61.3184C169.458 61.384 169.427 61.4487 169.396 61.5131C169.427 61.4487 169.458 61.384 169.486 61.3184C168.453 61.276 167.454 60.9429 166.602 60.3573C166.562 60.3296 166.514 60.3145 166.465 60.3141C166.416 60.3136 166.367 60.3278 166.326 60.3548V60.3548C166.304 60.3699 166.283 60.3888 166.267 60.4106L166.264 60.4139C166.264 60.4139 166.264 60.4148 166.263 60.4151C166.248 60.4358 166.237 60.4588 166.229 60.4832C166.213 60.5317 166.212 60.5838 166.227 60.6325C166.242 60.6813 166.272 60.7242 166.312 60.7554L166.313 60.7562C166.37 60.7998 166.426 60.8444 166.48 60.8902C166.481 60.8906 166.482 60.8913 166.483 60.8921C166.496 60.9029 166.509 60.9137 166.522 60.9246C166.598 60.9894 166.672 61.056 166.743 61.1244C166.866 61.2415 166.983 61.3635 167.092 61.4906C167.523 61.9904 167.854 62.5681 168.068 63.1924C167.365 63.7739 166.511 64.165 165.578 64.3261L165.576 64.3264C165.505 64.3329 165.434 64.3411 165.363 64.3506C165.307 64.3582 165.255 64.3849 165.216 64.4261C165.177 64.4674 165.154 64.5207 165.149 64.5772C165.148 64.5939 165.149 64.6106 165.151 64.6271L165.152 64.6354C165.156 64.6679 165.166 64.6991 165.183 64.7275C165.199 64.7558 165.221 64.7807 165.247 64.8006C165.272 64.8204 165.302 64.835 165.334 64.8433C165.365 64.8516 165.398 64.8536 165.431 64.8491C165.502 64.8396 165.572 64.829 165.642 64.8173L165.644 64.817C165.658 64.8152 165.672 64.8143 165.685 64.8132C165.785 64.8047 165.884 64.7995 165.983 64.7967C166.153 64.7926 166.322 64.7964 166.489 64.8082C167.065 64.8491 167.631 64.9868 168.162 65.2154C168.224 65.1685 168.287 65.1231 168.351 65.0792C168.446 65.0133 168.543 64.9505 168.642 64.8909C168.71 64.8499 168.779 64.8104 168.849 64.7724C170.087 64.0988 171.529 63.902 172.902 64.2193C172.91 64.2209 172.917 64.2227 172.925 64.2246C173.017 64.2462 173.108 64.2703 173.198 64.2967C173.286 64.3223 173.374 64.3502 173.46 64.3803C173.468 64.3828 173.476 64.3858 173.484 64.3885C173.505 64.3955 173.525 64.4025 173.545 64.41C173.548 64.411 173.552 64.4125 173.555 64.4138C173.574 64.4205 173.593 64.4274 173.612 64.4341C173.654 64.4501 173.696 64.4667 173.738 64.4837C173.887 64.3633 174.043 64.2514 174.205 64.1484V64.1484C174.521 63.9472 174.86 63.7824 175.213 63.6571V63.6571C175.373 63.6004 175.534 63.5519 175.699 63.5117C175.795 63.4882 175.892 63.4672 175.99 63.4494C176.071 63.4345 176.152 63.4216 176.233 63.4108C176.275 63.4052 176.315 63.3891 176.348 63.364C176.382 63.3388 176.409 63.3054 176.426 63.267C176.427 63.2659 176.427 63.2647 176.427 63.2635C176.448 63.2204 176.456 63.1722 176.45 63.1248C176.445 63.0927 176.435 63.0617 176.419 63.0337C176.402 63.0056 176.381 62.981 176.355 62.9613C176.329 62.9416 176.3 62.9272 176.269 62.9188C176.237 62.9105 176.205 62.9084 176.173 62.9126V62.9126ZM167.714 61.4733C168.208 61.649 168.723 61.7585 169.246 61.799C169.121 62.0174 168.98 62.2261 168.824 62.4232C168.712 62.565 168.592 62.7006 168.466 62.8297V62.8297C168.298 62.3948 168.077 61.9825 167.808 61.6022V61.6022C167.777 61.5587 167.745 61.5156 167.714 61.4733ZM173.656 63.9259C173.554 63.8894 173.45 63.8559 173.346 63.8255L173.324 63.819C173.158 63.7711 172.991 63.7303 172.822 63.6967L172.8 63.6924C172.134 63.5625 171.451 63.5423 170.779 63.6327L170.751 63.6364L170.73 63.6392L170.707 63.6422L170.684 63.6453L170.658 63.6488L170.632 63.6531L170.603 63.6577L170.57 63.663C169.958 63.7646 169.365 63.957 168.811 64.234C168.649 64.3147 168.492 64.4024 168.338 64.4972C168.257 64.5475 168.176 64.5998 168.097 64.6542C167.768 64.5317 167.428 64.4404 167.082 64.3815C167.486 64.2012 167.866 63.9745 168.217 63.706C168.363 63.5945 168.503 63.4757 168.637 63.3501C168.843 63.1577 169.035 62.9501 169.21 62.729C169.435 62.4447 169.632 62.139 169.797 61.8161C170.059 61.303 170.238 60.7515 170.327 60.1822C170.495 60.5384 170.699 60.8761 170.937 61.1896C171.047 61.3355 171.164 61.476 171.289 61.6111C171.714 62.0699 172.21 62.4571 172.758 62.7578C172.92 62.8472 173.086 62.9278 173.256 62.9996C173.68 63.1812 174.126 63.3096 174.582 63.3819C174.257 63.5328 173.947 63.715 173.656 63.9259V63.9259Z" fill="#4F56A4"/>
<path d="M169.977 57.681C170.194 57.6521 170.347 57.4526 170.318 57.2355C170.289 57.0184 170.089 56.8659 169.872 56.8948C169.655 56.9237 169.503 57.1231 169.531 57.3402C169.56 57.5573 169.76 57.7099 169.977 57.681Z" fill="#4F56A4"/>
<path d="M165.575 60.2333C165.652 60.2229 165.725 60.1898 165.784 60.1379C165.843 60.0861 165.886 60.018 165.906 59.9422C165.926 59.8664 165.923 59.7863 165.898 59.712C165.873 59.6377 165.826 59.5726 165.763 59.5249C165.701 59.4773 165.626 59.4491 165.548 59.4441C165.469 59.4391 165.391 59.4574 165.324 59.4967C165.256 59.5361 165.201 59.5946 165.166 59.6651C165.132 59.7355 165.119 59.8146 165.129 59.8924C165.143 59.9966 165.198 60.0911 165.281 60.1551C165.365 60.219 165.47 60.2471 165.575 60.2333V60.2333Z" fill="#4F56A4"/>
<path d="M164.266 65.151C164.484 65.122 164.636 64.9226 164.607 64.7055C164.578 64.4884 164.379 64.3358 164.162 64.3648C163.945 64.3937 163.792 64.5931 163.821 64.8102C163.85 65.0273 164.049 65.1799 164.266 65.151Z" fill="#4F56A4"/>
<path d="M177.636 62.6832C177.573 62.6356 177.498 62.6075 177.42 62.6025C177.342 62.5974 177.264 62.6157 177.196 62.6551C177.128 62.6944 177.073 62.7529 177.039 62.8233C177.004 62.8937 176.991 62.9728 177.002 63.0506C177.012 63.1283 177.045 63.2013 177.097 63.2601C177.149 63.319 177.217 63.3612 177.293 63.3814C177.368 63.4016 177.448 63.3989 177.523 63.3735C177.597 63.3482 177.662 63.3014 177.71 63.2391C177.774 63.1556 177.802 63.0501 177.788 62.9459C177.774 62.8416 177.719 62.7471 177.636 62.6832V62.6832Z" fill="#4F56A4"/>
<path d="M174.895 58.9891C175.112 58.9602 175.264 58.7607 175.235 58.5436C175.206 58.3265 175.007 58.174 174.79 58.2029C174.573 58.2318 174.42 58.4312 174.449 58.6483C174.478 58.8655 174.678 59.018 174.895 58.9891Z" fill="#4F56A4"/>
<path d="M166.786 60.2068C166.833 60.2496 166.895 60.2727 166.958 60.2712C167.022 60.2696 167.083 60.2436 167.128 60.1986C167.179 60.1474 167.231 60.0972 167.284 60.0481C167.395 59.9458 167.511 59.8483 167.631 59.7555C167.751 59.6627 167.875 59.5754 168.002 59.4937C168.129 59.4121 168.26 59.3361 168.395 59.2659C168.528 59.1959 168.665 59.1316 168.806 59.0731C168.872 59.0451 168.94 59.0187 169.008 58.9937C169.067 58.9694 169.115 58.9231 169.141 58.8645C169.167 58.8059 169.169 58.7396 169.147 58.6795C169.125 58.6194 169.08 58.5701 169.023 58.542C168.965 58.5139 168.899 58.5093 168.838 58.5289C168.763 58.5564 168.689 58.5854 168.615 58.616C168.462 58.6794 168.311 58.7495 168.164 58.8263C168.017 58.9031 167.874 58.9862 167.734 59.0756C167.595 59.1647 167.46 59.2601 167.328 59.3619C167.197 59.4636 167.07 59.5706 166.948 59.6827C166.89 59.7367 166.832 59.792 166.776 59.8485C166.753 59.8722 166.734 59.9004 166.722 59.9314C166.71 59.9624 166.704 59.9956 166.704 60.029C166.705 60.0623 166.713 60.0952 166.727 60.1255C166.74 60.1559 166.76 60.1832 166.785 60.2057L166.786 60.2068Z" fill="#4F56A4"/>
<path d="M165.362 64.1366L165.363 64.1364C165.427 64.1334 165.487 64.1059 165.531 64.0598C165.575 64.0137 165.599 63.9524 165.599 63.8887C165.599 63.8164 165.6 63.7441 165.604 63.6717C165.61 63.5207 165.622 63.37 165.642 63.2195C165.661 63.0698 165.687 62.9204 165.719 62.7722C165.751 62.624 165.79 62.4784 165.836 62.3334C165.881 62.1885 165.932 62.0472 165.99 61.9064C166.017 61.8396 166.046 61.7732 166.077 61.7072C166.101 61.6483 166.102 61.5822 166.079 61.5227C166.056 61.4633 166.011 61.4151 165.953 61.3881C165.895 61.3612 165.829 61.3576 165.769 61.3781C165.708 61.3987 165.658 61.4417 165.629 61.4983C165.595 61.5707 165.563 61.6438 165.533 61.7175C165.469 61.871 165.412 62.0265 165.363 62.1842C165.313 62.3419 165.27 62.5024 165.234 62.6656C165.199 62.8276 165.171 62.9909 165.15 63.1556C165.129 63.3202 165.115 63.4853 165.108 63.651C165.104 63.7306 165.103 63.8104 165.103 63.8904C165.103 63.9238 165.11 63.9568 165.123 63.9874C165.137 64.018 165.156 64.0457 165.18 64.0686C165.204 64.0916 165.233 64.1095 165.264 64.1212C165.295 64.1328 165.329 64.1381 165.362 64.1366V64.1366Z" fill="#4F56A4"/>
<path d="M174.508 60.1983C174.56 60.2495 174.61 60.3018 174.659 60.3551C174.761 60.4661 174.859 60.5816 174.952 60.7017C175.044 60.8218 175.132 60.9453 175.213 61.0722C175.295 61.1991 175.371 61.3299 175.441 61.4648C175.511 61.5982 175.576 61.7352 175.634 61.8757C175.662 61.9427 175.688 62.0102 175.714 62.0783C175.738 62.1371 175.784 62.1842 175.843 62.2098C175.901 62.2354 175.967 62.2375 176.027 62.2157C176.087 62.1939 176.136 62.1498 176.164 62.0927C176.192 62.0356 176.197 61.9698 176.178 61.909C176.151 61.834 176.122 61.7595 176.091 61.6857C176.028 61.5323 175.958 61.3821 175.881 61.235C175.804 61.0879 175.721 60.9446 175.632 60.805C175.543 60.6656 175.447 60.5303 175.346 60.3991C175.244 60.2678 175.137 60.141 175.024 60.0186C174.97 59.96 174.915 59.9026 174.858 59.8464C174.835 59.8229 174.807 59.8044 174.775 59.7921C174.744 59.7798 174.711 59.7738 174.678 59.7747C174.645 59.7755 174.612 59.7831 174.581 59.7969C174.551 59.8108 174.524 59.8306 174.501 59.8553L174.5 59.8564C174.457 59.9035 174.434 59.9654 174.436 60.029C174.437 60.0927 174.463 60.1533 174.508 60.1983Z" fill="#4F56A4"/>
<path d="M170.818 58.6697C170.89 58.6693 170.963 58.6707 171.035 58.674C171.186 58.6801 171.337 58.6929 171.487 58.7122C171.638 58.7316 171.787 58.7573 171.935 58.7895C172.082 58.8217 172.228 58.8605 172.373 58.9059C172.519 58.9512 172.661 59.0026 172.8 59.0601C172.867 59.0882 172.934 59.1172 173 59.1473C173.058 59.1717 173.125 59.1724 173.184 59.1492C173.243 59.1261 173.292 59.0809 173.319 59.0231C173.346 58.9653 173.349 58.8993 173.329 58.8389C173.308 58.7785 173.265 58.7283 173.208 58.6989C173.136 58.6652 173.063 58.6331 172.989 58.6025C172.836 58.5388 172.68 58.4822 172.522 58.4325C172.365 58.3828 172.205 58.3402 172.042 58.3047C171.88 58.2692 171.716 58.2406 171.551 58.2192C171.386 58.1978 171.221 58.1839 171.056 58.1774C170.976 58.1742 170.896 58.1727 170.816 58.1728C170.783 58.1729 170.75 58.1798 170.719 58.193C170.689 58.2062 170.661 58.2255 170.638 58.2497C170.615 58.2738 170.597 58.3024 170.586 58.3336C170.574 58.3649 170.569 58.3982 170.57 58.4315L170.57 58.4331C170.573 58.4969 170.601 58.557 170.647 58.6011C170.693 58.6451 170.754 58.6697 170.818 58.6697V58.6697Z" fill="#4F56A4"/>
</g>
<path d="M231 58C239.837 58 247 50.8365 247 42C247 33.1634 239.837 26 231 26C222.163 26 215 33.1634 215 42C215 50.8365 222.163 58 231 58Z" fill="#AEE5F7"/>
<mask id="mask0_672_13805" style="mask-type:alpha" maskUnits="userSpaceOnUse" x="221" y="32" width="21" height="21">
<rect x="221.564" y="32.5642" width="19.6923" height="19.6923" fill="#D9D9D9"/>
</mask>
<g mask="url(#mask0_672_13805)">
<path d="M230.549 45.3233L235.184 40.6874L234.015 39.5181L230.549 42.9848L228.825 41.2617L227.656 42.431L230.549 45.3233ZM231.41 50.6156C229.509 50.1369 227.94 49.0462 226.703 47.3434C225.465 45.6411 224.846 43.7506 224.846 41.672V36.6669L231.41 34.2053L237.974 36.6669V41.672C237.974 43.7506 237.355 45.6411 236.118 47.3434C234.88 49.0462 233.311 50.1369 231.41 50.6156ZM231.41 48.8925C232.832 48.4412 234.008 47.5387 234.938 46.1848C235.868 44.831 236.333 43.3267 236.333 41.672V37.7951L231.41 35.9489L226.487 37.7951V41.672C226.487 43.3267 226.952 44.831 227.882 46.1848C228.812 47.5387 229.988 48.4412 231.41 48.8925Z" fill="white"/>
</g>
<path d="M205.845 132.811C200.246 131.319 194.647 129.828 189.048 128.337C188.467 128.181 188.384 127.832 188.528 127.312C188.888 126.013 189.226 124.707 189.575 123.405C191.34 116.817 193.105 110.229 194.87 103.643C194.948 103.352 195.041 103.066 195.125 102.782L212.589 107.451C212.506 107.814 212.437 108.182 212.34 108.542C210.179 116.633 208.014 124.723 205.845 132.811Z" fill="#00BEED"/>
<path d="M236.826 113.956C236.497 115.185 236.191 116.422 235.861 117.651C234.025 124.503 232.189 131.356 230.353 138.208C230.068 139.272 230.006 139.31 228.955 139.026L212.532 134.603C214.693 126.536 216.854 118.472 219.014 110.411C219.118 110.024 219.251 109.644 219.37 109.262L236.826 113.956Z" fill="#00BEED"/>
<path d="M195.623 100.77C195.097 100.619 194.565 100.475 194.044 100.308C193.606 100.168 193.402 99.9096 193.542 99.4017C194.192 97.0425 194.826 94.6776 195.445 92.3072C195.652 91.5331 196.146 91.6113 196.726 91.7669C201.164 92.9558 205.602 94.1451 210.042 95.3347C210.378 95.425 210.724 95.474 211.067 95.541C212.506 96.0634 214.008 96.354 215.473 96.786C215.473 96.8254 215.479 96.8645 215.49 96.9024C215.38 97.3108 215.252 97.7139 215.141 98.1199C214.468 100.567 213.798 103.011 213.131 105.451L195.623 100.77Z" fill="#00BEED"/>
<path d="M227.145 99.8926C230.804 100.883 234.471 101.845 238.118 102.881C239.346 103.228 240.679 103.287 241.772 104.067C241.833 105.39 241.224 106.571 240.944 107.824C240.665 109.076 240.289 110.332 239.938 111.58C239.717 112.403 239.541 112.495 238.711 112.289C238.277 112.173 237.838 112.076 237.404 111.972L219.898 107.281C219.975 106.943 220.038 106.599 220.126 106.263C220.797 103.733 221.467 101.207 222.137 98.6856L222.31 98.5991L227.145 99.8926Z" fill="#00BEED"/>
<path d="M219.373 109.266C219.254 109.649 219.121 110.029 219.017 110.416C216.856 118.481 214.695 126.545 212.535 134.608C210.288 134.073 208.059 133.476 205.846 132.815C208.014 124.726 210.181 116.637 212.349 108.548C212.445 108.188 212.515 107.821 212.597 107.457L212.648 107.471L219.317 109.258L219.373 109.266Z" fill="#F5C763"/>
<path d="M227.145 99.8926L222.306 98.5961C222.479 98.5737 222.654 98.5704 222.828 98.5864C225.155 99.0573 227.549 99.1035 229.893 98.7228C231.369 98.4813 232.855 98.253 234.203 97.5418C234.507 97.3827 234.749 97.151 234.681 96.7737C234.612 96.3963 234.284 96.3481 233.987 96.31C232.212 96.0789 230.42 95.9307 228.617 96.1259C226.452 96.3265 224.336 96.8804 222.351 97.7658C222.092 97.8873 221.767 98.0077 221.732 97.5668C221.637 96.3735 220.893 95.6412 220.007 94.993C223.378 91.6645 227.362 90.2409 232.085 91.1311C232.427 91.1937 232.758 91.3363 233.103 91.3829C234.645 91.5887 235.3 92.5796 235.508 94.0168C235.611 94.833 235.625 95.6581 235.548 96.4772C235.445 97.7357 234.787 98.4804 233.637 98.8878C231.814 99.5196 229.927 99.6672 228.036 99.7953C227.737 99.8209 227.442 99.8601 227.145 99.8926Z" fill="#F5C763"/>
<path d="M215.473 96.7879C214.008 96.356 212.505 96.0654 211.067 95.543C209.498 94.5232 207.941 93.4919 206.589 92.1817C204.943 90.5812 204.777 89.5743 205.882 87.5429C207.244 85.037 208.194 84.5947 210.891 85.4522C215.607 86.942 218.353 90.3057 219.698 94.9456C218.533 94.648 217.516 94.9686 216.682 95.7969C216.36 96.1253 216.213 96.1151 215.945 95.7631C213.663 92.7675 210.589 90.4701 207.07 89.1308C206.709 88.9906 206.303 88.7179 205.989 89.1481C205.697 89.547 205.975 89.8953 206.222 90.2227C207.283 91.6354 208.603 92.7711 210.036 93.794C211.714 95.0071 213.515 96.0124 215.516 96.6254C215.844 96.7359 215.66 96.778 215.473 96.7879Z" fill="#F5C763"/>
<path d="M215.473 96.7879C215.66 96.7779 215.846 96.7261 215.516 96.6253C213.515 96.0123 211.714 95.0071 210.026 93.7913C208.602 92.771 207.285 91.6359 206.222 90.2226C205.975 89.8953 205.697 89.547 205.989 89.148C206.313 88.7122 206.709 88.9905 207.07 89.1307C210.589 90.4688 213.663 92.7648 215.946 95.7592C216.214 96.1112 216.363 96.1117 216.683 95.7929C217.517 94.9647 218.529 94.6425 219.699 94.9416L220.006 94.9949C220.892 95.647 221.638 96.3759 221.731 97.5687C221.767 98.0097 222.091 97.8892 222.35 97.7677C224.335 96.8824 226.452 96.3284 228.616 96.1278C230.419 95.9326 232.203 96.0788 233.985 96.3115C234.282 96.3495 234.612 96.4109 234.678 96.7751C234.744 97.1393 234.505 97.3841 234.201 97.5433C232.853 98.2525 231.361 98.4792 229.892 98.7223C227.548 99.103 225.155 99.0569 222.828 98.5864C222.656 98.572 222.483 98.5764 222.312 98.5996L222.139 98.6861L215.489 96.9043C215.479 96.8664 215.473 96.8273 215.473 96.7879V96.7879Z" fill="#E9B54E"/>
<path d="M195.623 100.77L213.128 105.461L213.18 105.475L212.645 107.474L212.594 107.461L195.131 102.792C195.297 102.112 195.461 101.438 195.623 100.77Z" fill="#1C85C8"/>
<path d="M219.906 107.269L237.411 111.959L236.829 113.946L219.375 109.257L219.321 109.242C219.501 108.571 219.68 107.901 219.86 107.231L219.906 107.269Z" fill="#1C85C8"/>
<path d="M215.489 96.9043L222.137 98.6856C221.462 101.205 220.794 103.727 220.133 106.251C220.043 106.586 219.982 106.93 219.906 107.269L219.852 107.254L213.183 105.467L213.13 105.453C213.801 103.005 214.471 100.562 215.14 98.1218C215.251 97.7159 215.372 97.3106 215.489 96.9043Z" fill="#F5C763"/>
<path d="M213.184 105.461L219.853 107.248C219.674 107.918 219.494 108.588 219.314 109.259L212.643 107.472L213.184 105.461Z" fill="#E9B54E"/>
<defs>
<clipPath id="clip0_672_13805">
<rect width="136" height="155" fill="white" transform="matrix(-1 0 0 1 218 5)"/>
</clipPath>
</defs>
</svg>
